<svg fill="#FFFFFF" width="30px" height="30px" viewBox="0 0 24 24" xmlns="http://www.w3.org/2000/svg">
  <path d="M22.225 0H1.775C.795 0 0 .795 0 1.775v20.45C0 23.205.795 24 1.775 24h20.45c.98 0 1.775-.795 1.775-1.775V1.775C24 .795 23.205 0 22.225 0zM7.02 20.451H3.75V9.79h3.27v10.661zm-1.635-12.14c-1.047 0-1.89-.83-1.89-1.853 0-1.023.843-1.853 1.89-1.853 1.048 0 1.892.83 1.892 1.853 0 1.023-.844 1.853-1.892 1.853zm14.85 12.14h-3.27v-5.32c0-1.267-.022-2.894-1.76-2.894-1.758 0-2.029 1.373-2.029 2.795v5.418h-3.27V9.79h3.14v1.42h.043c.44-.836 1.517-1.715 3.136-1.715 3.358 0 3.97 2.21 3.97 5.079v5.791z"/>
</svg>
