<svg fill="#FFFFFF" width="30px" height="30px" viewBox="0 0 24 24" xmlns="http://www.w3.org/2000/svg">
  <path d="M23.953 4.57a10.04 10.04 0 01-2.825.775 4.936 4.936 0 002.163-2.723 9.72 9.72 0 01-3.127 1.184 4.92 4.92 0 00-8.384 4.482A13.94 13.94 0 011.64 3.15a4.822 4.822 0 00-.666 2.475c0 1.71.87 3.213 2.188 4.096a4.904 4.904 0 01-2.228-.616v.06c0 2.385 1.693 4.374 3.946 4.827a4.904 4.904 0 01-2.224.085 4.93 4.93 0 004.604 3.417A9.867 9.867 0 010 19.54a13.9 13.9 0 007.548 2.212c9.057 0 14.004-7.5 14.004-14 0-.21 0-.42-.015-.63a9.935 9.935 0 002.457-2.547z"/>
</svg>
